<svg width="23" height="22" viewBox="0 0 23 22" fill="none" xmlns="http://www.w3.org/2000/svg">
<path d="M20.628 3.9107C20.6852 6.42592 19.7669 8.9541 17.892 10.8007C15.7408 12.9195 12.8391 13.6414 10.1755 13.0095C9.63597 10.4203 10.0588 7.75797 11.9602 5.88528C14.0965 3.78129 17.5849 3.18222 20.628 3.9107Z" fill="#70D767"/>
<path d="M2.60136 4.83365C2.18638 7.30492 2.77019 9.75843 4.41093 11.4529C6.10381 13.2012 8.54654 13.7528 10.9656 13.1911C11.402 10.7348 10.8208 8.26591 9.16803 6.55904C7.46254 4.79775 5.00376 4.24737 2.60136 4.83365Z" fill="#70D767"/>
<path d="M11.717 13.6496L11.8927 15.1657M11.717 13.6496L11.7707 13.3912C12.3785 10.4671 14.2782 8.006 16.9648 6.66211V6.66211M11.717 13.6496L11.3127 13.064C10.0982 11.3046 8.48679 9.83666 6.61109 8.78095V8.78095" stroke="#348E2B" stroke-width="2" stroke-linecap="round"/>
<path d="M11.8699 20.3857C10.2126 17.0979 12.9748 18.8683 11.5016 13.0512" stroke="#348E2B" stroke-width="2" stroke-linecap="round"/>
</svg>
